<svg width="948" height="783" viewBox="0 0 948 783" fill="none" xmlns="http://www.w3.org/2000/svg">
<path d="M689.045 28.5209V249.521L649.045 281.521V78.5209L374.045 174.521L367.045 730.521L649.045 635.521V484.521L689.045 445.521V662.521L337.045 781.521L223.045 756.521V612.521L0.0446777 592.521C90.378 588.521 276.645 578.721 299.045 571.521C321.445 564.321 304.378 549.854 293.045 543.521L89.0447 519.521L223.045 508.521V351.521L69.0447 327.521C130.378 324.854 256.645 317.321 271.045 308.521C285.445 299.721 271.045 286.854 262.045 281.521L5.04468 261.521L223.045 238.521V122.521L576.045 0.520935L689.045 28.5209Z" fill="#AB60FB"/>
<path d="M397.045 351.521V474.521M689.045 249.521V28.5209L576.045 0.520935L223.045 122.521V238.521L5.04468 261.521L262.045 281.521C271.045 286.854 285.445 299.721 271.045 308.521C256.645 317.321 130.378 324.854 69.0447 327.521L223.045 351.521V508.521L89.0447 519.521L293.045 543.521C304.378 549.854 321.445 564.321 299.045 571.521C276.645 578.721 90.378 588.521 0.0446777 592.521L223.045 612.521V756.521L337.045 781.521L689.045 662.521V445.521L649.045 484.521V635.521L367.045 730.521L374.045 174.521L649.045 78.5209V281.521L689.045 249.521Z" stroke="black"/>
<path d="M393.045 472.521V348.521L513.045 496.521C552.245 418.921 700.045 269.521 769.045 204.521L700.045 144.521L947.045 108.521L881.045 355.521L831.045 282.521C791.045 291.321 602.378 509.521 513.045 617.521L393.045 472.521Z" fill="#34A42E" stroke="black"/>
</svg>
